<svg xmlns="http://www.w3.org/2000/svg" width="775.656" height="187" viewBox="0 0 775.656 187">
  <path xmlns="http://www.w3.org/2000/svg" id="UI" class="cls-1" d="M88.207,166.43V151.089a186.52,186.52,0,0,1-28.292,1.992q-20.92,0-29.189-3.188T19.867,136.146q-2.592-10.558-2.59-37.259t2.59-37.258q2.587-10.558,10.859-13.748t29.189-3.188a209.571,209.571,0,0,1,27.5,1.992V31.743a104.333,104.333,0,0,0-14.744-2.192q-8.966-.794-17.135-0.8-24.708,0-36.063,5.38T4.227,53.859Q0.342,68.2.342,98.887q0,30.886,3.885,45.129t15.242,19.625q11.357,5.379,36.063,5.379,7.966,0,17.234-.7a138.394,138.394,0,0,0,15.441-1.893h0Zm82.884,2.59q27.094,0,38.554-5.379t14.544-18.828q3.087-13.449,3.089-45.926t-3.089-45.925q-3.09-13.449-14.544-18.828t-38.554-5.379q-27.3,0-38.652,5.38T117.993,52.962q-3.09,13.449-3.088,45.925t3.088,45.926q3.087,13.447,14.446,18.828t38.652,5.379h0Zm0-15.939q-20.322,0-27.595-2.59t-9.464-12.951q-2.195-10.358-2.191-38.653t2.191-38.653q2.191-10.357,9.464-12.951t27.6-2.59q20.323,0,27.5,2.59t9.364,12.951q2.19,10.362,2.192,38.653t-2.192,38.653q-2.194,10.362-9.364,12.951t-27.5,2.59h0Zm194.657,14.346-23.311-56.585q12.949-3.783,17.135-14.246t4.184-24.606q0-13.748-2.59-22.514a24.125,24.125,0,0,0-10.958-13.947q-8.368-5.179-24.707-5.18h-62.96V167.427h17.135v-53.8H326.1l21.319,53.8h18.33ZM318.329,97.692H279.676v-51.4h40.047q12.353,0,18.032,2.59t7.272,7.771q1.593,5.183,1.594,15.342,0,9.965-1.693,15.142T337.157,95q-6.079,2.69-18.828,2.69h0Zm169.354,69.735v-15.94H415.557V106.259h62.562V90.32H415.557V46.287h72.126V30.348H398.422V167.427h89.261ZM535,0H776V187H535V0ZM657.465,41.81v61.977q0,12.454-1.186,17.422a9.243,9.243,0,0,1-5.782,6.821q-4.6,1.855-15.865,1.853-11.419,0-16.014-1.853a9.422,9.422,0,0,1-5.856-6.821q-1.261-4.965-1.261-17.422V41.81H594.747V98.6q0,20.166,2.743,29.58T608.462,141.3q8.229,3.708,26.17,3.707t26.1-3.707q8.153-3.7,10.824-13.048T674.22,98.6V41.81H657.465Zm59.752,102.011V41.81H700.462V143.821h16.755Z" transform="translate(-0.344)" style="&#10;    fill:  white;&#10;"/>
</svg>
